<?xml version="1.0" encoding="UTF-8" standalone="no"?>
<svg
   version="1.1"
   id="Layer_1"
   x="0px"
   y="0px"
   width="100%"
   viewBox="0 0 870 805"
   enable-background="new 0 0 870 805"
   xml:space="preserve"
   sodipodi:docname="logo2.svg"
   inkscape:version="1.1.2 (b8e25be833, 2022-02-05)"
   xmlns:inkscape="http://www.inkscape.org/namespaces/inkscape"
   xmlns:sodipodi="http://sodipodi.sourceforge.net/DTD/sodipodi-0.dtd"
   xmlns="http://www.w3.org/2000/svg"
   xmlns:svg="http://www.w3.org/2000/svg"><defs
   id="defs21" /><sodipodi:namedview
   id="namedview19"
   pagecolor="#ffffff"
   bordercolor="#666666"
   borderopacity="1.0"
   inkscape:pageshadow="2"
   inkscape:pageopacity="0.0"
   inkscape:pagecheckerboard="0"
   showgrid="false"
   inkscape:zoom="0.8931677"
   inkscape:cx="434.96871"
   inkscape:cy="403.05981"
   inkscape:window-width="1920"
   inkscape:window-height="1174"
   inkscape:window-x="-11"
   inkscape:window-y="-11"
   inkscape:window-maximized="1"
   inkscape:current-layer="Layer_1" />
<path
   fill="#fcfcfc"
   opacity="1"
   stroke="none"
   d="m 870.40651,12.689034 c 0,264.289016 0,528.578056 0,792.933526 -289.90712,0 -579.81419,0 -870.000018,0 0,-263.96283 0,-527.99222 0.46605,-792.477503 C 291.02789,12.68913 580.71716,12.689082 870.40651,12.689034 M 455.31146,448.56335 c 0,0 -0.30737,-0.38534 -0.19043,-1.05215 3.06247,-4.10938 6.47519,-8.00638 9.12024,-12.36881 7.28986,-12.02301 3.1311,-28.50986 -4.8103,-33.98156 -7.54477,19.52835 -23.32059,25.04577 -42.37372,24.5184 -19.63214,-0.54343 -33.40579,-10.11435 -41.59723,-28.22461 -0.0202,5.30542 0.0673,10.33136 1.07916,15.16372 6.9253,33.07346 33.08558,55.78202 69.99146,49.04789 30.04556,-5.48239 58.04279,-35.01685 53.1344,-69.88297 -3.90656,-27.74951 -28.9631,-50.58127 -57.54764,-50.14392 -12.05231,0.18439 -20.8085,8.59122 -22.18689,21.30164 -1.08588,10.01309 6.44019,20.09744 16.97659,22.83044 9.42636,2.44504 18.3942,5.98779 25.96671,12.2634 6.698,5.55081 11.87161,12.25567 12.54855,21.3247 0.91373,12.24082 -6.80316,23.55921 -20.1109,29.20383 m 173.17995,298.70392 c 41.9659,-24.36053 77.9328,-55.66229 107.9901,-93.7168 31.969,-40.47473 54.983,-85.50818 68.6071,-135.32751 7.4389,-27.20169 11.9741,-54.87875 13.1315,-82.99835 0.6286,-15.26963 0.5296,-30.70234 -0.9592,-45.8931 -1.9719,-20.11804 -4.3905,-40.34796 -8.8036,-60.03983 -10.2187,-45.59695 -29.0012,-87.70303 -55.2838,-126.41923 -22.9133,-33.75279 -50.4296,-63.11099 -82.6481,-88.18469 C 644.19091,94.193181 615.52466,77.793691 584.99719,64.577729 553.51758,50.949532 520.4953,42.774682 486.63791,37.822926 c -6.76932,-0.99004 -13.62064,-1.419372 -21.37116,-2.201847 1.53247,2.077702 2.30985,3.331669 3.27823,4.414871 17.24823,19.293598 32.48636,40.076381 46.09192,62.0739 27.2265,44.01985 46.10382,91.36791 56.89185,141.98939 0.56237,2.63905 2.3797,5.60426 4.51721,7.22455 29.28888,22.20193 50.27455,50.70328 64.17015,84.49331 12.4578,30.29426 17.0714,61.78025 11.9907,94.28348 -1.6013,10.24329 -4.8066,20.23581 -7.3684,30.71375 -25.28336,-8.63819 -49.48148,-16.90561 -74.12491,-25.32514 -19.11932,83.46827 -58.46741,155.60584 -116.7551,216.04548 15.85819,21.75097 32.46784,42.2293 46.45475,64.36499 13.9732,22.11395 25.32135,45.88653 37.94934,69.16992 30.93536,-8.08374 60.96515,-20.96485 90.12892,-37.80231 M 296.48361,61.229344 c -4.30401,1.788834 -8.64401,3.496258 -12.90661,5.378864 -52.92798,23.376073 -98.53257,56.720382 -136.27047,100.628442 -33.72482,39.23883 -58.943128,83.30993 -74.573148,132.74565 -14.28199,45.17209 -20.30032,91.31375 -17.59026,138.71087 1.40163,24.51367 5.08187,48.59653 11.0253,72.30091 11.20353,44.68341 30.2371,85.90747 56.561308,123.73065 18.83109,27.05694 40.61362,51.45721 65.78226,72.79657 21.4122,18.15454 44.38768,34.04138 69.23279,47.10998 10.39334,5.46698 21.17407,10.19757 31.81024,15.27796 0.76865,-1.2843 1.14649,-1.82764 1.43735,-2.41413 20.72302,-41.7854 47.18503,-79.54937 79.49185,-113.18878 2.33682,-2.43322 1.84778,-3.8706 -0.0822,-6.2066 -9.53754,-11.54389 -19.27915,-22.95239 -28.20798,-34.95953 -23.27527,-31.29957 -41.87897,-65.24372 -55.85568,-101.67887 -10.08789,-26.29742 -18.15521,-53.18091 -23.02609,-80.96966 -1.39209,-7.9423 -2.86622,-15.87024 -4.40296,-24.35822 -11.3443,3.36563 -22.09254,6.55441 -33.30972,9.88232 -4.56238,-14.79385 -6.42174,-29.20474 -5.41825,-44.18762 2.21787,-33.11423 15.60015,-61.18051 37.27146,-85.76986 1.4339,-1.62696 2.66604,-3.85245 3.00629,-5.95878 4.24951,-26.30674 10.30645,-52.14129 18.97854,-77.37356 19.23303,-55.96054 48.08994,-106.325379 87.11664,-150.835748 3.32138,-3.788097 6.6279,-7.589245 10.90976,-12.493542 -28.63666,4.39962 -54.82608,11.562828 -80.98041,21.832684 m 97.90283,417.051816 c -16.79596,-8.10822 -29.79748,-19.83762 -36.49124,-37.7573 -5.53936,-14.82928 -5.26782,-30.18823 -2.99255,-45.31662 2.98395,-19.84045 7.4454,-39.4566 11.17019,-59.18829 4.32117,-22.89087 7.89145,-45.84143 4.30411,-69.23096 -3.16705,-20.64911 -12.0249,-38.36792 -27.85452,-52.13216 -5.49667,-4.77948 -11.99332,-8.40892 -18.03323,-12.56364 -0.44483,0.45523 -0.88965,0.91048 -1.33448,1.36571 0.92917,2.03225 1.80014,4.0935 2.79651,6.09227 9.25202,18.55996 14.28333,38.20303 15.491,58.89898 1.56604,26.83768 -4.90048,52.00748 -14.66013,76.7417 -8.57666,21.73618 -14.13913,44.36396 -15.31894,67.80008 -0.94738,18.81903 0.39124,37.33033 5.46229,55.81342 5.28335,19.25677 13.22518,36.6626 27.19161,50.84799 24.15079,24.5296 53.54221,35.37378 87.8682,31.02808 36.20288,-4.58313 62.51706,-23.99341 79.60385,-55.83551 10.87628,-20.26862 13.89624,-42.18308 10.63873,-64.87055 -1.75543,-12.22583 -5.7611,-23.7659 -12.59219,-35.24716 6.79068,64.09311 -57.09231,110.82916 -115.24921,83.55396 m 34.59156,-289.67753 c 14.35894,12.17994 31.71731,10.50242 42.08096,-4.06671 7.80789,-10.97627 5.20563,-27.27275 -5.79968,-36.31996 -9.92771,-8.16133 -26.8534,-7.2995 -35.66434,1.81598 -10.45032,10.81152 -10.86099,24.89517 -0.61694,38.57069 z"
   id="path2" />






<path
   fill="#030303"
   opacity="1.000000"
   stroke="none"
   d=" M456.061462,449.064728   C455.389374,449.497986 454.560760,449.740845 453.732147,449.983673   C453.659302,449.782074 453.586456,449.580475 453.513580,449.378876   C454.017487,449.131805 454.521393,448.884766 455.311462,448.563354   C455.597595,448.488983 455.904968,448.874329 456.061462,449.064728  z"
   id="path16" />
</svg>
