<svg version="1.1" id="Layer_1" xmlns="http://www.w3.org/2000/svg" xmlns:xlink="http://www.w3.org/1999/xlink" x="0px" y="0px"
	 width="100%" viewBox="0 0 870 805" enable-background="new 0 0 870 805" xml:space="preserve">
<path fill="#FCFCFC" opacity="1.000000" stroke="none" 
	d="
M871.000000,13.000000 
	C871.000000,277.289032 871.000000,541.578064 871.000000,805.933533 
	C581.092896,805.933533 291.185822,805.933533 1.000000,805.933533 
	C1.000000,541.970703 1.000000,277.941315 1.466042,13.456023 
	C291.621399,13.000096 581.310669,13.000048 871.000000,13.000000 
M455.904968,448.874329 
	C455.904968,448.874329 455.597595,448.488983 455.714539,447.822174 
	C458.777008,443.712799 462.189728,439.815796 464.834778,435.453369 
	C472.124634,423.430359 467.965881,406.943512 460.024475,401.471802 
	C452.479706,421.000153 436.703888,426.517578 417.650757,425.990204 
	C398.018616,425.446777 384.244965,415.875854 376.053528,397.765594 
	C376.033356,403.071014 376.120850,408.096954 377.132690,412.929321 
	C384.057983,446.002777 410.218262,468.711334 447.124146,461.977203 
	C477.169708,456.494812 505.166931,426.960358 500.258545,392.094238 
	C496.351990,364.344727 471.295441,341.512970 442.710907,341.950317 
	C430.658600,342.134705 421.902405,350.541534 420.524017,363.251953 
	C419.438141,373.265045 426.964203,383.349396 437.500610,386.082397 
	C446.926971,388.527435 455.894806,392.070190 463.467316,398.345795 
	C470.165314,403.896606 475.338928,410.601471 476.015869,419.670502 
	C476.929596,431.911316 469.212708,443.229706 455.904968,448.874329 
M629.084900,747.578247 
	C671.050842,723.217712 707.017761,691.915955 737.075012,653.861450 
	C769.044006,613.386719 792.058044,568.353271 805.682129,518.533936 
	C813.120972,491.332245 817.656189,463.655182 818.813660,435.535583 
	C819.442200,420.265961 819.343262,404.833252 817.854370,389.642487 
	C815.882507,369.524445 813.463867,349.294525 809.050781,329.602661 
	C798.832153,284.005707 780.049622,241.899628 753.766968,203.183426 
	C730.853760,169.430634 703.337463,140.072433 671.118958,114.998726 
	C644.784424,94.504143 616.118164,78.104660 585.590698,64.888695 
	C554.111084,51.260498 521.088806,43.085648 487.231415,38.133892 
	C480.462097,37.143852 473.610779,36.714520 465.860260,35.932045 
	C467.392731,38.009747 468.170105,39.263714 469.138489,40.346916 
	C486.386719,59.640514 501.624847,80.423294 515.230408,102.420815 
	C542.456909,146.440674 561.334229,193.788742 572.122253,244.410217 
	C572.684631,247.049271 574.501953,250.014481 576.639465,251.634766 
	C605.928345,273.836700 626.914062,302.338043 640.809570,336.128082 
	C653.267395,366.422333 657.880981,397.908325 652.800293,430.411560 
	C651.199036,440.654846 647.993713,450.647369 645.431946,461.125305 
	C620.148560,452.487122 595.950439,444.219696 571.307007,435.800171 
	C552.187683,519.268433 512.839600,591.406006 454.551910,651.845642 
	C470.410095,673.596619 487.019745,694.074951 501.006653,716.210632 
	C514.979858,738.324585 526.328003,762.097168 538.955994,785.380554 
	C569.891357,777.296814 599.921143,764.415710 629.084900,747.578247 
M297.077118,61.540310 
	C292.773102,63.329144 288.433105,65.036568 284.170502,66.919174 
	C231.242523,90.295250 185.637939,123.639572 147.900040,167.547623 
	C114.175217,206.786453 88.956909,250.857559 73.326889,300.293274 
	C59.044899,345.465363 53.026566,391.607025 55.736626,439.004150 
	C57.138260,463.517822 60.818493,487.600677 66.761925,511.305054 
	C77.965454,555.988464 96.999023,597.212524 123.323235,635.035706 
	C142.154327,662.092651 163.936859,686.492920 189.105499,707.832275 
	C210.517700,725.986816 233.493179,741.873657 258.338287,754.942261 
	C268.731628,760.409241 279.512360,765.139832 290.148529,770.220215 
	C290.917175,768.935913 291.295013,768.392578 291.585876,767.806091 
	C312.308899,726.020691 338.770905,688.256714 371.077728,654.617310 
	C373.414551,652.184082 372.925507,650.746704 370.995514,648.410706 
	C361.457977,636.866821 351.716370,625.458313 342.787537,613.451172 
	C319.512268,582.151611 300.908569,548.207458 286.931854,511.772308 
	C276.843964,485.474884 268.776642,458.591400 263.905762,430.802643 
	C262.513672,422.860352 261.039551,414.932404 259.502808,406.444427 
	C248.158508,409.810059 237.410263,412.998840 226.193085,416.326752 
	C221.630707,401.532898 219.771347,387.122009 220.774841,372.139130 
	C222.992706,339.024902 236.374985,310.958618 258.046295,286.369263 
	C259.480194,284.742310 260.712341,282.516815 261.052582,280.410492 
	C265.302094,254.103745 271.359039,228.269196 280.031128,203.036926 
	C299.264160,147.076385 328.121063,96.711540 367.147766,52.201168 
	C370.469147,48.413071 373.775665,44.611923 378.057526,39.707626 
	C349.420868,44.107246 323.231445,51.270454 297.077118,61.540310 
M394.979950,478.592133 
	C378.183990,470.483917 365.182465,458.754517 358.488708,440.834839 
	C352.949341,426.005554 353.220886,410.646606 355.496155,395.518219 
	C358.480103,375.677765 362.941559,356.061615 366.666351,336.329926 
	C370.987518,313.439056 374.557800,290.488495 370.970459,267.098969 
	C367.803406,246.449860 358.945557,228.731049 343.115936,214.966812 
	C337.619263,210.187332 331.122620,206.557892 325.082703,202.403168 
	C324.637878,202.858398 324.193054,203.313644 323.748230,203.768875 
	C324.677399,205.801132 325.548370,207.862381 326.544739,209.861145 
	C335.796753,228.421112 340.828064,248.064178 342.035736,268.760132 
	C343.601776,295.597809 337.135254,320.767609 327.375610,345.501831 
	C318.798950,367.238007 313.236481,389.865784 312.056671,413.301910 
	C311.109283,432.120941 312.447906,450.632233 317.518951,469.115326 
	C322.802307,488.372101 330.744141,505.777924 344.710571,519.963318 
	C368.861359,544.492920 398.252777,555.337097 432.578766,550.991394 
	C468.781647,546.408264 495.095825,526.997986 512.182617,495.155884 
	C523.058899,474.887268 526.078857,452.972809 522.821350,430.285339 
	C521.065918,418.059509 517.060242,406.519440 510.229156,395.038177 
	C517.019836,459.131287 453.136841,505.867340 394.979950,478.592133 
M429.571503,188.914612 
	C443.930450,201.094543 461.288818,199.417023 471.652466,184.847900 
	C479.460358,173.871628 476.858093,157.575150 465.852783,148.527939 
	C455.925079,140.366608 438.999390,141.228439 430.188446,150.343918 
	C419.738129,161.155441 419.327454,175.239090 429.571503,188.914612 
z"/>
<path fill="#F2F2F2" opacity="1.000000" stroke="none" 
	d="
M871.000000,12.525640 
	C581.310669,13.000048 291.621399,13.000096 1.466042,13.000072 
	C1.000000,9.002008 1.000000,5.004018 1.000000,1.028392 
	C291.000000,1.028392 581.000000,1.028392 871.000000,1.028392 
	C871.000000,4.721615 871.000000,8.386448 871.000000,12.525640 
z"/>
<path fill="#AAAAAA" opacity="1.000000" stroke="none" 
	d="
M628.778931,747.779419 
	C599.921143,764.415710 569.891357,777.296814 538.955994,785.380554 
	C526.328003,762.097168 514.979858,738.324585 501.006653,716.210632 
	C487.019745,694.074951 470.410095,673.596619 454.551910,651.845642 
	C512.839600,591.406006 552.187683,519.268433 571.307007,435.800171 
	C595.950439,444.219696 620.148560,452.487122 645.431946,461.125305 
	C647.993713,450.647369 651.199036,440.654846 652.800293,430.411560 
	C657.880981,397.908325 653.267395,366.422333 640.809570,336.128082 
	C626.914062,302.338043 605.928345,273.836700 576.639465,251.634766 
	C574.501953,250.014481 572.684631,247.049271 572.122253,244.410217 
	C561.334229,193.788742 542.456909,146.440674 515.230408,102.420815 
	C501.624847,80.423294 486.386719,59.640514 469.138489,40.346916 
	C468.170105,39.263714 467.392731,38.009747 465.860260,35.932045 
	C473.610779,36.714520 480.462097,37.143852 487.231415,38.133892 
	C521.088806,43.085648 554.111084,51.260498 585.590698,64.888695 
	C616.118164,78.104660 644.784424,94.504143 671.118958,114.998726 
	C703.337463,140.072433 730.853760,169.430634 753.766968,203.183426 
	C780.049622,241.899628 798.832153,284.005707 809.050781,329.602661 
	C813.463867,349.294525 815.882507,369.524445 817.854370,389.642487 
	C819.343262,404.833252 819.442200,420.265961 818.813660,435.535583 
	C817.656189,463.655182 813.120972,491.332245 805.682129,518.533936 
	C792.058044,568.353271 769.044006,613.386719 737.075012,653.861450 
	C707.017761,691.915955 671.050842,723.217712 628.778931,747.779419 
z"/>
<path fill="#AAAAAA" opacity="1.000000" stroke="none" 
	d="
M297.430725,61.386749 
	C323.231445,51.270454 349.420868,44.107246 378.057526,39.707626 
	C373.775665,44.611923 370.469147,48.413071 367.147766,52.201168 
	C328.121063,96.711540 299.264160,147.076385 280.031128,203.036926 
	C271.359039,228.269196 265.302094,254.103745 261.052582,280.410492 
	C260.712341,282.516815 259.480194,284.742310 258.046295,286.369263 
	C236.374985,310.958618 222.992706,339.024902 220.774841,372.139130 
	C219.771347,387.122009 221.630707,401.532898 226.193085,416.326752 
	C237.410263,412.998840 248.158508,409.810059 259.502808,406.444427 
	C261.039551,414.932404 262.513672,422.860352 263.905762,430.802643 
	C268.776642,458.591400 276.843964,485.474884 286.931854,511.772308 
	C300.908569,548.207458 319.512268,582.151611 342.787537,613.451172 
	C351.716370,625.458313 361.457977,636.866821 370.995514,648.410706 
	C372.925507,650.746704 373.414551,652.184082 371.077728,654.617310 
	C338.770905,688.256714 312.308899,726.020691 291.585876,767.806091 
	C291.295013,768.392578 290.917175,768.935913 290.148529,770.220215 
	C279.512360,765.139832 268.731628,760.409241 258.338287,754.942261 
	C233.493179,741.873657 210.517700,725.986816 189.105499,707.832275 
	C163.936859,686.492920 142.154327,662.092651 123.323235,635.035706 
	C96.999023,597.212524 77.965454,555.988464 66.761925,511.305054 
	C60.818493,487.600677 57.138260,463.517822 55.736626,439.004150 
	C53.026566,391.607025 59.044899,345.465363 73.326889,300.293274 
	C88.956909,250.857559 114.175217,206.786453 147.900040,167.547623 
	C185.637939,123.639572 231.242523,90.295250 284.170502,66.919174 
	C288.433105,65.036568 292.773102,63.329144 297.430725,61.386749 
z"/>
<path fill="#ABABAB" opacity="1.000000" stroke="none" 
	d="
M395.321716,478.746826 
	C453.136841,505.867340 517.019836,459.131287 510.229156,395.038177 
	C517.060242,406.519440 521.065918,418.059509 522.821350,430.285339 
	C526.078857,452.972809 523.058899,474.887268 512.182617,495.155884 
	C495.095825,526.997986 468.781647,546.408264 432.578766,550.991394 
	C398.252777,555.337097 368.861359,544.492920 344.710571,519.963318 
	C330.744141,505.777924 322.802307,488.372101 317.518951,469.115326 
	C312.447906,450.632233 311.109283,432.120941 312.056671,413.301910 
	C313.236481,389.865784 318.798950,367.238007 327.375610,345.501831 
	C337.135254,320.767609 343.601776,295.597809 342.035736,268.760132 
	C340.828064,248.064178 335.796753,228.421112 326.544739,209.861145 
	C325.548370,207.862381 324.677399,205.801132 323.748230,203.768875 
	C324.193054,203.313644 324.637878,202.858398 325.082703,202.403168 
	C331.122620,206.557892 337.619263,210.187332 343.115936,214.966812 
	C358.945557,228.731049 367.803406,246.449860 370.970459,267.098969 
	C374.557800,290.488495 370.987518,313.439056 366.666351,336.329926 
	C362.941559,356.061615 358.480103,375.677765 355.496155,395.518219 
	C353.220886,410.646606 352.949341,426.005554 358.488708,440.834839 
	C365.182465,458.754517 378.183990,470.483917 395.321716,478.746826 
z"/>
<path fill="#ABABAB" opacity="1.000000" stroke="none" 
	d="
M456.217987,449.255127 
	C469.212708,443.229706 476.929596,431.911316 476.015869,419.670502 
	C475.338928,410.601471 470.165314,403.896606 463.467316,398.345795 
	C455.894806,392.070190 446.926971,388.527435 437.500610,386.082397 
	C426.964203,383.349396 419.438141,373.265045 420.524017,363.251953 
	C421.902405,350.541534 430.658600,342.134705 442.710907,341.950317 
	C471.295441,341.512970 496.351990,364.344727 500.258545,392.094238 
	C505.166931,426.960358 477.169708,456.494812 447.124146,461.977203 
	C410.218262,468.711334 384.057983,446.002777 377.132690,412.929321 
	C376.120850,408.096954 376.033356,403.071014 376.053528,397.765594 
	C384.244965,415.875854 398.018616,425.446777 417.650757,425.990204 
	C436.703888,426.517578 452.479706,421.000153 460.024475,401.471802 
	C467.965881,406.943512 472.124634,423.430359 464.834778,435.453369 
	C462.189728,439.815796 458.777008,443.712799 455.369934,448.229950 
	C454.521393,448.884766 454.017487,449.131805 453.513580,449.378876 
	C453.586456,449.580475 453.659302,449.782074 453.732147,449.983673 
	C454.560760,449.740845 455.389374,449.497986 456.217987,449.255127 
z"/>
<path fill="#ABABAB" opacity="1.000000" stroke="none" 
	d="
M429.325287,188.652832 
	C419.327454,175.239090 419.738129,161.155441 430.188446,150.343918 
	C438.999390,141.228439 455.925079,140.366608 465.852783,148.527939 
	C476.858093,157.575150 479.460358,173.871628 471.652466,184.847900 
	C461.288818,199.417023 443.930450,201.094543 429.325287,188.652832 
z"/>
<path fill="#FCFCFC" opacity="1.000000" stroke="none" 
	d="
M456.061462,449.064728 
	C455.389374,449.497986 454.560760,449.740845 453.732147,449.983673 
	C453.659302,449.782074 453.586456,449.580475 453.513580,449.378876 
	C454.017487,449.131805 454.521393,448.884766 455.311462,448.563354 
	C455.597595,448.488983 455.904968,448.874329 456.061462,449.064728 
z"/>
</svg>