<?xml version="1.0" encoding="UTF-8" standalone="no"?>
<!-- Created with Inkscape (http://www.inkscape.org/) -->

<svg
   version="1.1"
   id="svg2"
   width="580"
   height="536.66669"
   viewBox="0 0 580 536.66669"
   sodipodi:docname="favicon.svg"
   inkscape:version="1.1.2 (b8e25be833, 2022-02-05)"
   xmlns:inkscape="http://www.inkscape.org/namespaces/inkscape"
   xmlns:sodipodi="http://sodipodi.sourceforge.net/DTD/sodipodi-0.dtd"
   xmlns="http://www.w3.org/2000/svg"
   xmlns:svg="http://www.w3.org/2000/svg">
  <defs
     id="defs6" />
  <sodipodi:namedview
     id="namedview4"
     pagecolor="#ffffff"
     bordercolor="#666666"
     borderopacity="1.0"
     inkscape:pageshadow="2"
     inkscape:pageopacity="0.0"
     inkscape:pagecheckerboard="0"
     showgrid="false"
     inkscape:zoom="1.3397515"
     inkscape:cx="255.64442"
     inkscape:cy="267.96014"
     inkscape:window-width="1920"
     inkscape:window-height="1174"
     inkscape:window-x="-11"
     inkscape:window-y="-11"
     inkscape:window-maximized="1"
     inkscape:current-layer="g8" />
  <g
     inkscape:groupmode="layer"
     inkscape:label="Image"
     id="g8">
    <g
       id="g30">
      <path
         style="fill:#eaeaea;stroke-width:0.666667"
         d="m 351.76177,518.24643 c -11.2291,-25.96693 -29.9349,-55.48309 -48.80128,-77.00424 -2.49318,-2.84399 -4.53304,-5.47336 -4.53304,-5.84305 0,-0.36969 2.59499,-3.44278 5.76666,-6.8291 32.10533,-34.27823 57.2197,-79.45884 69.1999,-124.49029 1.02426,-3.85 2.28418,-8.575 2.79982,-10.5 1.0698,-3.99379 1.89769,-4.28373 6.98313,-2.44558 1.60443,0.57992 11.98688,4.16559 23.07211,7.96814 l 20.15495,6.91374 1.63337,-5.46814 c 3.39757,-11.37422 4.00918,-15.96564 4.01423,-30.13482 0.003,-10.0854 -0.29331,-14.95731 -1.21884,-20.00001 -5.76421,-31.40592 -24.28341,-62.21222 -48.22039,-80.21361 -4.50485,-3.3878 -4.2496,-2.86036 -6.83302,-14.11972 C 370.86502,134.66153 359.38181,103.9767 349.59773,86.118598 338.4291,65.733353 326.78191,48.570859 313.21171,32.502689 c -3.36468,-3.984047 -6.1176,-7.703326 -6.1176,-8.265067 0,-2.008003 16.62536,-0.0772 36.66667,4.258313 74.58346,16.134566 138.94241,66.22435 173.35124,134.917145 14.16677,28.28214 22.85177,58.2173 26.11143,90 1.28642,12.54304 1.10237,39.45136 -0.35796,52.33334 -5.57554,49.18333 -24.14747,94.13752 -54.60327,132.16965 -9.06476,11.31974 -29.42093,31.69681 -40.16811,40.20933 -24.66154,19.53368 -54.18913,35.28808 -82.33622,43.93035 -4.8198,1.47987 -9.30823,2.69068 -9.97428,2.69068 -0.89522,0 -1.94394,-1.69493 -4.02184,-6.5 z m -167.33432,-6.4019 C 146.24667,495.04306 109.86501,466.15519 84.507532,432.50581 41.551673,375.50338 24.227909,303.22004 36.712152,233.07975 39.412811,217.90662 44.586128,199.46446 50.083397,185.41308 79.151319,111.11363 141.28077,54.384875 217.68494,32.380558 c 10.95661,-3.155494 30.42191,-7.244308 31.45319,-6.606949 1.25364,0.774793 0.4813,2.087477 -4.49476,7.639466 -12.09372,13.493415 -25.75737,32.16953 -34.81958,47.593036 -4.84078,8.2388 -13.9871,26.652709 -18.12912,36.498589 -7.55298,17.95397 -14.78444,42.71804 -18.22013,62.39463 l -1.65638,9.48626 -3.78517,4.46193 c -15.45778,18.2215 -23.8183,41.5128 -22.69751,63.23223 0.36375,7.04905 2.23642,17.70001 3.29883,18.76242 0.20794,0.20795 5.0517,-1.03592 10.76389,-2.76416 7.97272,-2.41216 10.59819,-2.96598 11.29987,-2.38364 0.50274,0.41724 1.11584,2.47464 1.36245,4.572 0.24661,2.09736 1.46755,8.91338 2.7132,15.14672 6.84294,34.24278 19.13859,66.25713 36.55989,95.19155 7.71348,12.81102 13.58588,21.15514 23.71264,33.69335 11.69066,14.4745 12.04786,14.93086 12.04786,15.39212 0,0.23619 -2.59818,3.27048 -5.77374,6.74288 -18.75538,20.50852 -35.14946,43.90702 -46.21996,65.96757 -2.33782,4.65864 -3.70288,6.67391 -4.51238,6.66171 -0.63832,-0.01 -3.41058,-1.0076 -6.16058,-2.21774 z m 87.66666,-142.8876 c -20.78858,-1.73417 -38.90271,-11.54483 -51.2315,-27.74713 -6.82158,-8.96483 -9.82618,-15.69679 -13.67469,-30.63883 -5.85139,-22.71835 -4.08912,-47.83817 5.24926,-74.82455 7.57657,-21.89502 8.65801,-25.26636 9.65844,-30.10977 4.21139,-20.38866 1.96268,-41.86273 -6.36302,-60.76368 -1.88807,-4.28628 -3.47911,-8.39322 -3.53567,-9.12656 -0.17228,-2.2341 2.7125,-1.33068 8.71779,2.73015 6.23212,4.21421 12.93397,11.10579 16.29999,16.76143 10.61042,17.82786 11.78842,37.08236 4.45648,72.84176 -6.00182,29.27209 -6.65478,33.34916 -7.04686,44 -0.33702,9.1551 -0.21744,10.97676 1.04874,15.97626 2.96345,11.70116 8.26255,19.39391 17.67221,25.65488 12.60711,8.38848 26.24156,11.37124 39.97115,8.74434 24.9288,-4.76967 43.11102,-26.747 43.11102,-52.10944 0,-3.76971 0.2599,-7.01464 0.57756,-7.21097 0.9589,-0.59263 2.5741,1.71174 4.69766,6.70203 5.77037,13.56016 7.18367,29.94349 3.82183,44.30352 -6.24633,26.68105 -27.42717,47.70479 -53.63711,53.23931 -5.92128,1.25035 -15.02028,1.97541 -19.79328,1.57725 z m 6.57624,-59.82163 c -5.29146,-1.00412 -12.64058,-4.55611 -16.80911,-8.12422 -4.01424,-3.43604 -9.177,-10.66446 -11.37865,-15.93133 -3.44302,-8.23653 -5.16036,-20.75713 -2.94682,-21.48429 0.42625,-0.14003 1.75014,1.57496 2.94198,3.81108 3.30738,6.20529 6.71061,9.65385 12.15991,12.32189 14.89535,7.2929 33.68285,2.42547 39.17216,-10.14868 0.6803,-1.55833 1.6758,-2.83333 2.21221,-2.83333 2.49256,0 6.40542,8.5027 6.40542,13.91905 0,4.08009 -1.42192,8.80849 -3.67084,12.20682 -2.35934,3.56522 -1.74358,3.8634 1.21514,0.58846 3.71299,-4.10984 5.3803,-7.82874 5.40137,-12.04766 0.0461,-9.22767 -8.51881,-17.85645 -21.73857,-21.90069 -8.61444,-2.63536 -12.18263,-5.45485 -14.25594,-11.26463 -2.10604,-5.90151 -0.18709,-13.10739 4.61284,-17.32178 3.75416,-3.2962 8.84453,-4.51807 15.12332,-3.63013 20.27264,2.86692 34.6263,19.35856 34.6263,39.78389 0,11.57366 -3.71079,20.10122 -12.62804,29.01975 -8.66911,8.67037 -17.87574,12.81465 -30.19509,13.59205 -3.3289,0.21006 -7.36335,-0.009 -10.24759,-0.55625 z m 11.42376,-177.84038 c -8.61031,-3.26374 -12.87108,-10.20333 -12.18156,-19.84031 0.71758,-10.02915 8.2795,-16.953259 18.5149,-16.953259 16.61606,0 25.06364,19.209089 13.99268,31.818209 -3.37901,3.84848 -6.76527,5.28939 -12.99268,5.52859 -2.93334,0.11268 -6.23334,-0.13628 -7.33334,-0.55323 z M -2.2392213,3.4130739 V 0.74640715 h 290.0000013 290 V 3.4130739 6.0797407 h -290 -290.0000013 z"
         id="path36" />
      <path
         style="fill:#cfcfcf;stroke-width:0.666667"
         d="m 353.65837,520.57976 c -0.81004,-1.925 -4.57988,-9.70796 -8.37743,-17.29547 -11.67688,-23.33046 -26.26365,-45.04818 -43.12316,-64.20453 -1.29082,-1.46667 -2.3582,-3.06619 -2.37197,-3.55451 -0.0137,-0.48832 2.72945,-3.86566 6.09604,-7.50522 13.05098,-14.1092 30.33027,-37.8516 40.20534,-55.24366 12.02079,-21.17114 23.90941,-50.93392 29.40368,-73.61118 1.05466,-4.35301 2.28144,-8.0542 2.72618,-8.22486 0.44474,-0.17066 11.3879,3.3163 24.31814,7.74879 18.61338,6.38069 23.6709,7.88535 24.2844,7.22486 0.9469,-1.01941 3.10822,-8.31121 4.59454,-15.50089 1.55094,-7.50231 2.0775,-24.60786 1.03071,-33.48325 -3.83345,-32.50246 -22.51358,-66.2747 -47.53488,-85.9394 -2.64871,-2.08167 -5.05303,-3.99035 -5.34291,-4.24151 -0.28989,-0.25116 -1.86487,-5.93562 -3.49996,-12.63214 -3.04302,-12.46274 -8.34486,-29.07512 -13.08574,-41.00186 -3.31285,-8.33423 -12.013,-26.414032 -16.63451,-34.568239 -8.14881,-14.377788 -20.89473,-32.706044 -31.68479,-45.561792 -3.42903,-4.085497 -6.2346,-7.760497 -6.2346,-8.166667 0,-0.990765 2.35076,-0.931846 12.1055,0.303411 21.42351,2.712889 46.08892,9.212019 65.57607,17.278751 14.43626,5.975907 36.53284,18.118911 48.31843,26.553016 27.54878,19.714701 48.24028,40.97436 66.30566,68.12634 8.78198,13.19918 12.46372,19.58064 17.80473,30.86048 13.11875,27.70592 20.94061,55.88901 23.99944,86.47285 1.19835,11.98173 1.01745,37.54883 -0.35613,50.33334 -2.69814,25.11283 -9.49506,51.37754 -19.07125,73.69519 -28.85353,67.24417 -86.71457,120.11882 -155.64245,142.22935 -5.84467,1.87484 -11.01133,3.4088 -11.48147,3.4088 -0.47014,0 -1.51757,-1.575 -2.32761,-3.5 z M 180.42745,509.1746 C 164.99188,502.02969 147.33955,491.31842 133.76078,480.85769 113.77802,465.46349 94.057719,444.97084 80.202399,425.20167 56.326933,391.13548 42.354151,355.68121 35.750053,312.40913 c -2.032895,-13.32014 -2.582586,-44.39626 -1.041678,-58.88995 3.456208,-32.50886 11.945254,-62.14852 25.425256,-88.77277 13.620294,-26.90133 30.280974,-49.61119 51.214739,-69.809845 35.2847,-34.045663 78.45767,-56.893986 125.67076,-66.508432 8.70702,-1.773094 11.40832,-2.039435 11.40832,-1.124836 0,0.306289 -2.57734,3.493469 -5.72742,7.082623 -13.17234,15.008389 -27.81328,35.652657 -36.66132,51.693824 -16.18024,29.334166 -28.0474,62.697606 -33.26292,93.515616 -0.85605,5.05829 -1.95112,9.71158 -2.4335,10.34064 -0.48238,0.62906 -2.01886,2.42105 -3.41439,3.9822 -3.78335,4.23232 -10.87363,15.34578 -13.79739,21.62633 -5.77312,12.40126 -8.7167,25.25773 -8.68986,37.95411 0.0231,10.91033 2.45474,23.24778 4.58207,23.24778 0.59743,0 5.43289,-1.33354 10.74548,-2.96343 7.43013,-2.27954 9.83122,-2.77955 10.40444,-2.16666 0.40985,0.43822 1.24073,4.09676 1.84639,8.13009 1.5712,10.46317 5.34656,26.91095 8.8432,38.52628 12.2214,40.59777 32.70632,77.9218 60.39154,110.03489 2.47886,2.87532 4.50701,5.74419 4.50701,6.37528 0,0.63109 -0.93075,2.02856 -2.06832,3.1055 -7.51502,7.1144 -25.41257,29.62517 -33.62445,42.29139 -5.20656,8.03075 -12.99756,21.4174 -16.37894,28.14262 -1.43541,2.85489 -2.98149,5.1744 -3.43573,5.15446 -0.45424,-0.0199 -4.87589,-1.91096 -9.82589,-4.20224 z m 84.43983,-141.75188 c -12.80509,-2.31343 -25.85891,-8.87034 -35.00476,-17.58281 -10.70297,-10.19581 -17.00716,-21.01486 -21.03144,-36.09349 -3.07212,-11.51096 -3.66868,-15.08586 -4.16895,-24.98241 -0.90886,-17.97942 2.56395,-36.81456 11.17302,-60.59795 6.52278,-18.01982 8.21672,-25.25641 8.99331,-38.41964 0.94871,-16.08079 -2.91811,-34.89101 -10.07652,-49.01745 -3.19445,-6.30395 -1.97282,-6.79122 5.11965,-2.04208 9.56802,6.40677 17.23625,15.82692 21.15468,25.98775 3.42316,8.87656 4.40889,15.10692 4.33584,27.40511 -0.0778,13.09437 -0.8017,18.19936 -6.6493,46.89051 -4.06422,19.94105 -4.39702,22.23657 -4.75181,32.77616 -0.34161,10.14798 -0.23247,11.92601 1.04351,17 3.55606,14.14081 11.14869,22.98681 25.75627,30.00807 8.75207,4.20676 15.97183,5.64526 25.66667,5.11395 8.36233,-0.45829 13.17238,-1.66897 20.38514,-5.13089 13.34663,-6.406 23.10932,-17.68668 27.97474,-32.32446 1.35816,-4.08608 1.85675,-7.16937 2.132,-13.18433 0.1976,-4.31805 0.60625,-8.00365 0.90813,-8.19021 1.43671,-0.88794 6.80484,13.7151 7.96934,21.67915 1.11247,7.6082 0.46363,21.49199 -1.34104,28.69539 -1.68521,6.72656 -6.8562,17.86078 -10.94857,23.57455 -9.55534,13.34116 -24.3685,23.45779 -40.33276,27.54522 -4.44302,1.13758 -23.60226,1.73986 -28.30715,0.88986 z m 15.91732,-58.73429 c -8.87978,-1.33194 -15.54393,-4.95692 -21.77871,-11.84658 -6.08967,-6.7293 -9.77272,-14.71536 -11.23479,-24.3607 -1.07249,-7.0752 -0.20077,-8.35387 2.47888,-3.63615 6.35113,11.18164 18.39429,16.62367 32.29121,14.59167 9.27775,-1.35658 16.05478,-5.82958 19.70648,-13.00672 l 1.6874,-3.31648 1.93549,2.31648 c 5.68627,6.80556 4.90362,17.41312 -1.90119,25.7676 -1.64091,2.01458 -2.86757,3.77878 -2.72592,3.92044 0.61211,0.6121 7.1874,-4.53306 9.07738,-7.10302 9.33566,-12.69453 1.12084,-27.22621 -18.86792,-33.37659 -5.89589,-1.81412 -7.05607,-2.4322 -9.75091,-5.19474 -3.01397,-3.08968 -4.60789,-6.86307 -4.60789,-10.90862 0,-4.59682 3.85802,-10.59586 8.33334,-12.95798 6.78426,-3.5808 18.89876,-1.53002 28.43987,4.81439 10.34839,6.88122 16.31703,17.6377 17.02857,30.68832 0.75042,13.76386 -4.53719,24.81012 -16.45418,34.37414 -9.02049,7.23942 -22.42994,10.91859 -33.65711,9.23454 z m 9.46986,-178.22822 c -7.23135,-2.58043 -11.81399,-9.193 -11.81399,-17.04713 0,-16.350382 19.55578,-24.386749 31.14403,-12.79851 8.67326,8.67327 5.82015,23.85082 -5.49039,29.20697 -3.8387,1.81783 -9.76832,2.09147 -13.83965,0.63867 z"
         id="path34" />
      <path
         style="fill:#a9a9a9;stroke-width:0.666667"
         d="m 353.77631,518.9131 c -2.6512,-6.50158 -12.44289,-25.74578 -17.12334,-33.65355 -8.5782,-14.4931 -20.71916,-31.57984 -30.44452,-42.84646 -2.21556,-2.56666 -4.45316,-5.17401 -4.97246,-5.7941 -0.84655,-1.01085 -0.26982,-1.87252 5.57775,-8.33333 33.25186,-36.73906 56.90303,-80.28188 69.23134,-127.45783 1.28186,-4.90522 2.42315,-9.01108 2.53619,-9.12412 0.11304,-0.11304 10.66215,3.37532 23.44247,7.75192 12.78032,4.3766 23.78982,7.95746 24.46556,7.95746 2.42696,0 6.20397,-15.50545 7.28872,-29.9218 2.56191,-34.0478 -11.44075,-70.24095 -37.63562,-97.27804 -3.65893,-3.77658 -8.84747,-8.54764 -11.5301,-10.60236 -2.68263,-2.05473 -5.01598,-4.3648 -5.18523,-5.1335 -6.09406,-27.67784 -13.09974,-47.84905 -25.02871,-72.064312 -10.45489,-21.222934 -23.38021,-41.134899 -38.46719,-59.260227 -3.39069,-4.073543 -6.16613,-7.617308 -6.16764,-7.875033 -0.006,-1.07543 21.62646,2.090539 35.20842,5.152775 26.28975,5.927374 50.57848,15.722742 74.87976,30.198149 10.78562,6.424612 16.63427,10.562395 29.06651,20.563855 45.3785,36.506013 77.60207,89.824413 88.77291,146.887153 3.49534,17.8549 4.73632,31.09212 4.73632,50.52133 0,69.6376 -27.99559,135.1287 -78.44342,183.50555 -16.87194,16.17931 -40.24337,32.62455 -61.48979,43.2671 -14.42003,7.22314 -41.08051,17.3727 -45.63397,17.3727 -1.22574,0 -1.82409,-0.74375 -3.08396,-3.83333 z M 180.42745,508.18896 C 127.76385,483.86377 83.398405,439.37551 58.322949,385.74642 41.423779,349.60403 33.458697,311.03224 34.64426,271.07975 36.376803,212.6945 56.598582,159.4925 94.164985,114.48515 c 7.353045,-8.80948 22.642555,-24.063046 31.595795,-31.521479 26.21321,-21.836736 59.32711,-39.469743 91.68608,-48.822438 11.69207,-3.379353 26.51317,-6.493309 29.20132,-6.135285 0.30474,0.04059 -1.53464,2.398794 -4.08751,5.240461 -15.8625,17.656988 -32.33547,41.945181 -43.29364,63.833336 -13.6498,27.264465 -23.44078,57.439505 -28.18713,86.870555 -0.71311,4.42184 -1.09503,5.22026 -4.14563,8.66666 -7.67737,8.67348 -15.06048,21.74666 -19.11343,33.84393 -5.01929,14.98159 -5.64236,33.19216 -1.62314,47.43988 0.54113,1.91822 1.28071,3.67114 1.64353,3.89537 0.36282,0.22423 5.29516,-1.0182 10.96077,-2.76096 5.66561,-1.74276 10.47491,-2.99485 10.68734,-2.78242 0.21243,0.21243 1.08921,4.54005 1.94841,9.61692 9.05364,53.49712 31.34112,101.75616 66.30558,143.5714 3.5387,4.23205 6.67573,8.08576 6.97116,8.56379 0.35695,0.57755 -0.47237,1.91015 -2.4719,3.97202 -17.19274,17.72868 -38.48334,47.83879 -49.21562,69.60287 -1.32178,2.68047 -2.63291,4.49158 -3.24261,4.47917 -0.56297,-0.0115 -4.77358,-1.75294 -9.35691,-3.86997 z m 84.34822,-141.85538 c -27.02577,-4.87751 -47.61947,-24.54336 -55.06828,-52.58716 -3.88803,-14.63793 -4.71345,-22.46308 -3.90711,-37.04009 0.90251,-16.31545 3.76175,-28.32439 12.88933,-54.13573 5.70304,-16.12728 6.66828,-21.52343 6.70618,-37.49085 0.0274,-11.53932 -0.17844,-14.31519 -1.52978,-20.6306 -1.72054,-8.04074 -3.71351,-14.02957 -7.28196,-21.88199 -1.29451,-2.84859 -2.18502,-5.34789 -1.9789,-5.55401 1.16,-1.15999 12.14889,7.34799 16.66862,12.90542 9.52492,11.71176 13.2334,23.4493 13.21556,41.82785 -0.0119,12.25364 -0.88958,18.55794 -6.39039,45.90133 -6.43447,31.9844 -6.96745,43.13471 -2.66629,55.78062 6.23591,18.33436 26.03784,31.33772 47.9948,31.51683 7.61019,0.0621 12.47535,-0.83193 19.8057,-3.63946 17.6398,-6.75606 30.47294,-22.46953 34.13762,-41.79963 0.58117,-3.06551 1.06622,-6.96551 1.07788,-8.66667 0.0188,-2.74357 0.12312,-2.95867 0.92326,-1.90388 0.49613,0.65403 1.81834,3.95403 2.93822,7.33333 10.42285,31.45125 -3.50974,66.74693 -32.67151,82.76729 -13.23608,7.2714 -29.94637,9.9895 -44.86295,7.2974 z m 11.59765,-59.43612 c -9.51221,-2.56959 -18.76309,-10.68651 -23.36039,-20.49691 -2.69929,-5.76012 -4.56764,-12.44283 -4.56296,-16.3208 l 0.003,-2.33333 1.89342,3 c 2.37905,3.76947 7.71572,8.77965 11.2989,10.60765 6.05036,3.08666 15.16971,4.13816 23.12884,2.66683 7.65915,-1.41587 15.01689,-6.63041 18.13755,-12.85435 l 1.29353,-2.57987 1.44229,1.83357 c 1.87027,2.37766 2.95834,6.39885 2.9828,11.02356 0.0264,4.9907 -2.36281,10.03807 -7.28711,15.39447 -3.16075,3.43811 -3.65878,4.27266 -2.66406,4.46423 0.67288,0.12958 3.12858,-1.05634 5.45712,-2.63538 9.7355,-6.60193 13.28901,-15.88629 9.33266,-24.38376 -3.48182,-7.47828 -11.1508,-13.26218 -22.02592,-16.6118 -9.91482,-3.05385 -13.43741,-7.40291 -12.89504,-15.92054 0.35304,-5.54454 2.65198,-8.97255 7.66065,-11.42307 3.27634,-1.60296 4.11436,-1.73292 9.0809,-1.40827 15.47584,1.01161 28.47589,11.48737 33.29105,26.82673 2.10362,6.70141 2.06181,16.22586 -0.10048,22.88505 -4.03577,12.4289 -15.3382,23.36946 -28.38576,27.47694 -6.50452,2.04768 -17.68483,2.41958 -23.7208,0.78905 z m 15.72079,-176.73533 c -4.69704,-1.2353 -8.95612,-4.7493 -11.41213,-9.41572 -1.83908,-3.49426 -1.69999,-11.4326 0.26543,-15.14896 3.24302,-6.132119 8.76192,-9.517705 15.51498,-9.517705 9.31153,0 16.39317,6.448735 17.12749,15.596755 0.58309,7.26409 -2.6068,13.46706 -8.60403,16.73116 -3.55051,1.93243 -9.26036,2.70949 -12.89174,1.75447 z"
         id="path32" />
    </g>
  </g>
</svg>
